<svg width="153" height="24" viewBox="0 0 153 24" fill="none" xmlns="http://www.w3.org/2000/svg">
<g clip-path="url(#clip0_46_673)">
<path d="M19.1003 21.5303C11.33 27.3983 -0.117498 22.2503 0.00233438 11.9735C-0.129246 5.39028 5.31959 -0.194518 11.8164 0.00468173C15.2422 -0.0433183 18.4118 1.10148 20.745 3.57588L17.573 7.31268C12.7821 2.39748 5.27495 4.75428 5.20681 11.9735C5.31489 19.2983 13.0006 21.5855 17.7351 16.5335L20.9119 19.8095C20.3515 20.429 19.7459 21.0043 19.1003 21.5303Z" fill="#A8063A"/>
<path d="M39.4436 19.8241C36.3091 26.1385 26.3819 24.4705 22.0562 20.2417L25.0191 16.6153C27.0844 18.2953 29.1521 19.4593 31.833 19.4425C33.5013 19.4425 35.0591 18.9625 35.1226 17.2465C35.1578 15.0865 32.3171 14.8201 30.5172 14.2201C27.7423 13.4593 24.77 12.7465 23.48 9.99608C21.9105 6.26888 23.6915 1.71128 27.6695 0.516082C31.6122 -0.722318 36.1987 0.367282 39.3566 2.97608L36.7509 6.83528C34.4529 5.23928 31.1117 3.60248 28.6258 5.12168C28.3899 5.29192 28.1994 5.51957 28.0714 5.784C27.9434 6.04843 27.8819 6.3413 27.8927 6.63608C27.8645 8.11688 29.0675 8.55608 30.3904 8.99768C33.5436 10.0153 38.0972 10.6057 39.5986 14.0545C40.2824 15.6481 40.1955 18.2401 39.4436 19.8241Z" fill="#A8063A"/>
<path d="M43.4686 0H57.6604V4.56H47.8154L47.5523 8.64C51.2976 7.6464 56.3587 8.328 58.0575 12.3576C59.2982 15.2784 58.7624 19.6224 56.2836 21.78C52.0659 25.4376 44.97 24.3384 41.2599 20.4768L44.3144 16.7496C46.4526 18.8976 50.0852 20.3352 52.6345 18.4608C54.0091 17.4384 54.0443 14.5944 52.5688 13.5912C50.8277 12.24 47.6768 12.7008 45.7313 13.62L42.7989 11.6352L43.4686 0Z" fill="#A8063A"/>
<path d="M79.6531 16.7111C76.6526 26.3615 63.9105 26.4791 60.9123 16.7615C58.5274 9.71753 62.026 -0.074467 70.325 0.00473299C78.6005 -0.139267 82.0545 9.72234 79.6531 16.7111ZM74.8998 9.08873C74.2701 5.95673 71.1897 3.41033 68.215 5.15993C63.7953 7.78553 64.3146 19.2599 70.3297 19.3967C75.0408 19.2263 75.8561 12.8207 74.8904 9.08873H74.8998Z" fill="#A8063A"/>
<path d="M93.2436 23.9999L89.9775 18.8423L86.7021 23.9999H81.9065L87.5903 15.5999L82.118 7.43994H87.0522L90.0762 12.2567L93.1308 7.43994H97.9382L92.4658 15.4991L98.1708 23.9999H93.2436Z" fill="#A8063A"/>
<path d="M107.905 0V24H105.347V0H107.905Z" fill="#A8063A"/>
<path d="M114.663 24H112.177V6.90478H114.663V11.3688C115.814 8.57997 118.422 6.45118 121.491 6.60718V9.35998C120.106 9.28747 118.737 9.68413 117.596 10.4883C116.454 11.2925 115.605 12.4592 115.18 13.8072C114.313 15.84 114.778 21.7128 114.663 24Z" fill="#A8063A"/>
<path d="M125.885 8.88007C125.069 9.11513 124.274 9.41938 123.507 9.78967L122.762 7.70647C125.991 6.02647 131.444 5.46007 134.123 8.02087C135.354 9.17767 135.97 10.8913 135.97 13.1617V24.0001H133.573V21.0409C131.797 23.5201 128.291 24.6169 125.236 23.6521C121.087 22.6393 119.766 17.1121 123.26 14.4937C126.146 12.4801 130.382 12.9049 133.571 13.8001C133.968 8.89207 129.757 7.85287 125.885 8.88007ZM125.088 15.9073C122.842 17.5561 123.801 21.1321 126.428 21.7249C129.412 22.6321 133.618 20.8849 133.606 17.3281V15.6745C131.23 15.0025 127.149 14.3449 125.088 15.9169V15.9073Z" fill="#A8063A"/>
<path d="M140.589 24.0001H138.096V6.90492H140.589V9.88092C141.157 8.9475 141.906 8.14294 142.791 7.51692C145.018 5.94492 149.156 6.25212 151.028 8.44332C152.22 9.76572 152.73 11.5201 152.727 13.3873V24.0001H150.234V14.0137C150.248 10.9705 148.665 8.82972 145.605 8.85612C142.718 8.76012 140.476 11.2969 140.589 14.2129V24.0001Z" fill="#A8063A"/>
</g>
<defs>
<clipPath id="clip0_46_673">
<rect width="152.727" height="24" fill="white"/>
</clipPath>
</defs>
</svg>
